Fly_normalized_Motion_pl15
version=1
nRows=12
nColumns=43
inDegrees=yes
endheader
time		pelvis_tilt		pelvis_list		pelvis_rotation		pelvis_tx		pelvis_ty		pelvis_tz		hip_flexion_r		hip_adduction_r		hip_rotation_r		knee_angle_r		ankle_angle_r		subtalar_angle_r		mtp_angle_r		hip_flexion_l		hip_adduction_l		hip_rotation_l		knee_angle_l		ankle_angle_l		subtalar_angle_l		mtp_angle_l		lumbar_extension		lumbar_bending		lumbar_rotation		neck_flexion		neck_lateral_bending		neck_rotation		arm_flex_r		arm_add_r		arm_rot_r		elbow_flex_r		pro_sup_r		wrist_flex_r		wrist_dev_r		hand_finger_flex_r		arm_flex_l		arm_add_l		arm_rot_l		elbow_flex_l		pro_sup_l		wrist_flex_l		wrist_dev_l		hand_finger_flex_l		
1.487500		-1.794691		-18.519864		84.612548		0.049605		1.806753		1.520803		51.849041		-3.515135		7.194688		-129.104832		-0.192109		-6.118100		22.363143		68.227268		-5.470016		3.731154		-124.530387		-7.913455		15.337731		24.589174		-34.093554		-2.918123		5.808177		28.283253		3.432300		-4.968315		119.101266		-8.365651		18.630116		62.819157		119.466513		1.661809		1.631438		-27.122023		112.191377		-8.684023		24.754463		51.091708		110.963690		-12.630471		2.989492		-9.521549		
1.491237		-1.876941		-18.281979		84.424736		0.049224		1.807174		1.512962		51.575546		-3.283494		7.356426		-128.428293		-2.974352		-7.669194		21.194510		68.306512		-5.728148		3.306821		-123.683207		-8.051405		14.038980		24.231090		-34.115562		-3.072801		6.012486		27.888025		3.403559		-5.084768		118.887753		-8.477122		18.800171		62.523335		119.501352		1.597309		1.749458		-27.181237		111.805040		-8.717276		24.817330		51.270107		111.005523		-12.683934		3.189726		-9.544086		
1.494975		-1.740554		-17.980588		84.476878		0.048871		1.807737		1.504995		51.127450		-2.995693		7.062241		-127.667184		-5.258176		-9.759955		15.851924		68.349050		-5.942412		3.220229		-122.852761		-7.896341		12.785511		22.493850		-34.237835		-2.988299		6.187810		27.441498		3.470270		-5.162808		118.564261		-8.739615		19.020585		62.430611		119.397829		1.531127		1.837787		-27.369319		111.349812		-8.731877		24.702589		51.566605		111.656970		-12.366042		3.465540		-9.589919		
1.498712		-1.928868		-17.774581		84.122241		0.048531		1.807820		1.497305		51.055445		-2.745240		7.452590		-126.893861		-8.182872		-11.400056		14.337405		68.441038		-6.290654		2.606102		-122.025025		-7.671316		11.116052		22.119968		-34.241535		-3.272137		6.427821		27.099523		3.308362		-5.270176		118.321390		-8.925634		19.348367		62.131165		119.549754		1.461838		1.867323		-27.472864		110.872164		-8.860423		24.700642		51.857698		111.772044		-12.392790		3.607569		-9.667485		
1.502449		-2.104449		-17.554184		83.827376		0.048233		1.807871		1.489623		50.971151		-2.531293		7.738041		-126.056995		-11.066765		-13.433470		11.741430		68.544253		-6.572092		2.031282		-121.189329		-7.492626		9.260330		21.383979		-34.272679		-3.543705		6.634131		26.711895		3.230628		-5.364176		118.003339		-9.214697		19.694370		61.944070		119.648294		1.390889		1.876600		-27.638529		110.355364		-9.002476		24.691618		52.241610		112.113087		-12.257889		3.777627		-9.737957		
1.506187		-2.236973		-17.342601		83.607768		0.047864		1.807690		1.482083		50.941086		-2.320172		8.136667		-125.190576		-13.678528		-14.362388		8.984818		68.709163		-6.789640		1.592588		-120.401474		-7.190212		7.805307		20.591304		-34.313300		-3.745036		6.783528		26.350104		3.175805		-5.448100		117.669921		-9.509666		20.040206		61.725962		119.726865		1.397442		1.892307		-27.788695		109.841612		-9.166265		24.656540		52.589228		112.440299		-12.108847		3.878436		-9.804864		
1.509924		-2.476740		-17.180549		83.403485		0.047545		1.807352		1.474726		51.053030		-2.180226		8.522579		-124.390166		-15.164034		-15.149645		-1.528503		68.954806		-6.871643		1.051608		-119.608110		-6.654194		6.088083		17.190109		-34.338768		-4.061005		6.832354		26.181808		3.193262		-5.404046		117.255605		-9.858322		20.232329		61.639946		119.702166		1.542767		1.925132		-28.327928		109.383688		-9.185852		24.378238		52.871153		113.381307		-11.484677		4.103812		-10.082219		
1.513662		-2.466028		-16.941147		83.172481		0.047485		1.807013		1.467330		51.022941		-1.789703		8.986004		-123.451177		-17.286164		-14.789618		-2.528756		69.137899		-7.244378		0.811715		-118.845136		-6.381872		5.234255		17.003448		-34.465452		-4.169279		7.024961		25.837541		3.143834		-5.545578		116.963552		-10.141844		20.664815		61.334110		119.847070		1.681607		1.939551		-28.330222		108.791901		-9.552743		24.430933		53.404409		113.384773		-11.534723		4.009066		-10.130955		
1.517399		-2.855689		-16.806289		82.643044		0.047711		1.806463		1.460374		51.349587		-1.498488		9.732490		-122.664345		-18.186483		-14.845805		-11.399870		69.391407		-7.579922		-0.014804		-117.966054		-6.245884		3.202525		14.632978		-34.502496		-4.741036		7.177438		25.774264		2.946900		-5.390180		116.576717		-10.393217		20.825136		61.159897		120.108704		1.904106		1.943318		-28.706220		108.364804		-9.831131		24.455409		53.819898		113.591307		-11.189126		4.224843		-10.487411		
1.521136		-2.750038		-16.583655		82.499088		0.047829		1.806074		1.453209		51.339329		-1.023236		9.970348		-121.719030		-19.249985		-14.257436		-12.128658		69.630726		-7.926660		-0.059719		-117.161815		-5.968408		2.540783		14.513470		-34.697253		-4.782818		7.314014		25.665887		3.036047		-5.534045		116.187910		-10.703358		21.150030		60.945549		120.206542		2.029149		1.962505		-28.697463		107.787267		-10.227025		24.480448		54.395989		113.588434		-11.196504		4.098907		-10.514068		
1.524874		-2.639991		-16.373280		82.277210		0.048090		1.805681		1.446259		51.410165		-0.426920		10.228796		-120.815003		-19.859625		-13.489989		-12.600813		69.877249		-8.366720		-0.178137		-116.308878		-5.767460		1.568267		14.416823		-34.923918		-4.852018		7.542772		25.645258		2.946690		-5.501005		115.809923		-11.015455		21.428793		60.757835		120.311175		2.136690		1.989223		-28.681007		107.223572		-10.616737		24.472438		54.985353		113.574524		-11.176944		4.066293		-10.529778		
1.528611		-2.559977		-16.166133		82.049767		0.048292		1.805159		1.439363		51.494273		0.111412		10.395647		-119.970757		-19.411776		-12.611636		-12.973679		70.138613		-8.750930		-0.287569		-115.444381		-5.604785		0.541395		14.261853		-35.152438		-4.943582		7.740167		25.638013		2.873351		-5.442182		115.354476		-11.326649		21.645480		60.583074		120.429496		2.271384		2.025968		-28.653006		106.604559		-11.014740		24.420412		55.612019		113.555838		-11.145296		4.080086		-10.563463		
